M48
; DRILL file {KiCad 7.0.8} date Sun Jan  7 20:15:48 2024
; FORMAT={-:-/ absolute / inch / decimal}
; #@! TF.CreationDate,2024-01-07T20:15:48-08:00
; #@! TF.GenerationSoftware,Kicad,Pcbnew,7.0.8
; #@! TF.FileFunction,Plated,1,2,PTH
FMAT,2
INCH
; #@! TA.AperFunction,Plated,PTH,ViaDrill
T1C0.0197
; #@! TA.AperFunction,Plated,PTH,ComponentDrill
T2C0.0394
; #@! TA.AperFunction,Plated,PTH,ComponentDrill
T3C0.0402
; #@! TA.AperFunction,Plated,PTH,ComponentDrill
T4C0.0598
; #@! TA.AperFunction,Plated,PTH,ComponentDrill
T5C0.1260
%
G90
G05
T1
X2.9016Y-3.3583
X2.9134Y-3.1811
X2.9961Y-3.1693
X3.0079Y-4.0669
X3.0669Y-4.0512
X3.0984Y-4.3661
X3.1339Y-3.3661
X3.1772Y-4.6339
X3.2126Y-3.6732
X3.2244Y-3.3268
X3.2323Y-2.7677
X3.2402Y-2.9961
X3.248Y-5.126
X3.252Y-4.9606
X3.2559Y-4.7953
X3.3031Y-2.5945
X3.3228Y-3.3268
X3.3622Y-3.1378
X3.374Y-3.3622
X3.4055Y-4.0433
X3.4311Y-2.998
X3.4331Y-2.7992
X3.4409Y-4.7913
X3.4488Y-3.3661
X3.4646Y-4.9606
X3.5197Y-3.126
X3.5276Y-3.3346
X3.5472Y-2.9291
X3.5827Y-2.7402
X3.5945Y-3.6614
X3.6024Y-4.3701
X3.6063Y-3.8583
X3.6378Y-4.9646
X3.6457Y-4.7874
X3.685Y-3.1865
X3.7047Y-2.7441
X3.7126Y-3.9803
X3.7402Y-3.2441
X3.8031Y-3.8583
X3.8031Y-3.9606
X3.8071Y-4.9646
X3.8504Y-4.7874
X3.8543Y-3.2283
X3.9016Y-2.8858
X3.9055Y-3.8583
X3.9567Y-2.4843
X3.9961Y-4.3976
X4.0039Y-3.8583
X4.0079Y-2.937
X4.0354Y-4.7933
X4.0374Y-5.1752
X4.0433Y-4.6654
X4.0669Y-2.9449
X4.0669Y-4.5433
X4.0748Y-4.8858
X4.0984Y-4.3583
X4.1024Y-2.4094
X4.1063Y-3.8583
X4.1339Y-2.7402
X4.1496Y-4.5551
X4.1772Y-4.7244
X4.2047Y-3.8583
X4.2047Y-4.5866
X4.2047Y-4.9724
X4.2362Y-4.7205
X4.2441Y-3.1732
X4.2677Y-4.7756
X4.2835Y-4.8622
X4.3031Y-3.8583
X4.3071Y-2.5827
X4.3543Y-3.0335
X4.3583Y-3.1772
X4.3661Y-5.0236
X4.3701Y-4.7677
X4.4055Y-3.8583
X4.4331Y-4.7618
X4.4409Y-4.9567
X4.4646Y-2.5354
X4.4685Y-2.9882
X4.4803Y-3.1772
X4.4921Y-2.7717
X4.4961Y-3.8583
X4.5Y-4.937
X4.5157Y-2.4921
X4.5197Y-3.0787
X4.5433Y-2.3583
X4.5433Y-4.811
X4.5866Y-2.6063
X4.5984Y-3.185
X4.6024Y-3.8583
X4.622Y-4.7717
X4.626Y-3.3661
X4.6339Y-4.3661
X4.6417Y-5.1339
X4.6496Y-2.5472
X4.685Y-4.7244
X4.7008Y-4.4016
X4.7008Y-4.8071
X4.7165Y-3.1811
X4.7205Y-4.9882
X4.7323Y-4.5079
X4.7835Y-4.6516
X4.7992Y-4.4016
X4.8346Y-3.1772
X4.8465Y-2.6535
X4.8465Y-4.4882
X4.8504Y-4.7992
X4.8701Y-4.9685
X4.9331Y-4.6929
X4.9409Y-2.4764
X4.9528Y-3.8583
X5.0039Y-4.7953
X5.0591Y-4.9724
X5.063Y-2.5512
X5.063Y-2.6693
X5.0945Y-4.2087
X5.1102Y-4.6772
X5.1772Y-2.8504
X5.1969Y-2.4449
X5.2323Y-4.8031
X5.2362Y-4.9646
X5.2717Y-2.6339
X5.315Y-4.6535
X5.3228Y-4.1378
X5.4173Y-4.9724
X5.4409Y-4.8031
X5.5787Y-2.9134
X5.5838Y-2.4398
X5.6063Y-3.1732
X5.6063Y-5.0866
X5.6102Y-4.7165
X5.6102Y-4.9724
X5.6142Y-5.1929
X5.6299Y-4.7913
X5.689Y-2.5276
X5.7362Y-3.748
X5.7638Y-3.0866
X5.7717Y-4.0551
X5.7874Y-4.9291
X5.7874Y-4.9921
X5.8031Y-2.6496
X5.8228Y-2.4134
X5.8898Y-3.8858
X5.9094Y-3.1531
X5.9134Y-2.9232
X5.9173Y-2.4764
X5.9173Y-2.7475
X5.9173Y-4.8465
X5.9567Y-5.0984
X5.9646Y-3.2953
X5.9764Y-4.5709
X6.0118Y-4.7717
X6.0669Y-5.1654
X6.0979Y-3.9257
X6.0996Y-4.9499
X6.0999Y-3.534
X6.0999Y-3.7308
X6.1024Y-4.1457
X6.126Y-2.8898
X6.1378Y-2.7126
X6.1378Y-3.3858
X6.1496Y-3.2244
X6.1575Y-4.2165
X6.1693Y-4.752
X6.2047Y-3.3583
X6.252Y-2.6142
X6.2868Y-2.4376
X6.3346Y-3.1102
X6.3346Y-3.5787
X6.3346Y-3.7795
X6.3346Y-3.9488
X6.3386Y-2.7047
X6.3386Y-2.9134
X6.3543Y-5.0748
X6.3701Y-5.1732
X6.4173Y-4.185
X6.4213Y-2.5315
X6.437Y-4.0315
X6.4449Y-4.9882
X6.4488Y-4.6575
X6.4491Y-3.1772
X6.4606Y-3.4134
X6.5015Y-2.9552
X6.5118Y-2.7992
X6.5118Y-3.8386
X6.5236Y-3.6535
X6.5433Y-4.4016
X6.5472Y-5.0866
X6.5767Y-4.624
X6.5984Y-5.0315
X6.6462Y-3.5664
X6.6565Y-2.6841
T2
X3.4Y-5.2756
X3.5Y-5.2756
X3.6Y-5.2756
X3.7Y-5.2756
X3.8Y-5.2756
X3.9Y-5.2756
X4.0Y-5.2756
X4.0945Y-3.189
X4.0945Y-3.289
X4.1Y-5.2756
X4.7331Y-5.2756
X4.75Y-2.25
X4.8331Y-5.2756
X4.85Y-2.25
X4.9331Y-5.2756
X4.95Y-2.25
X5.0331Y-5.2756
X5.1331Y-5.2756
X5.2331Y-5.2756
X5.3331Y-5.2756
X5.3488Y-2.2559
X5.4331Y-5.2756
X5.4488Y-2.2559
X5.5488Y-2.2559
X5.9205Y-5.2756
X6.0205Y-5.2756
X6.0423Y-2.2677
X6.1205Y-5.2756
X6.1423Y-2.2677
X6.2205Y-5.2756
X6.2423Y-2.2677
X6.7717Y-2.6346
X6.7717Y-2.7346
X6.7717Y-2.8346
X6.7717Y-2.9346
X6.7717Y-3.0346
X6.7717Y-3.5
X6.7717Y-3.6
X6.7717Y-3.7
X6.7717Y-3.8
X6.7717Y-3.9
X6.7717Y-4.4457
X6.7717Y-4.5457
X6.7717Y-4.6457
X6.7717Y-4.7457
T3
X2.9024Y-3.5098
X2.9024Y-4.2098
X3.0024Y-3.5098
X3.0024Y-4.2098
X3.1024Y-3.5098
X3.1024Y-4.2098
X3.2024Y-3.5098
X3.2024Y-4.2098
X3.3024Y-3.5098
X3.3024Y-4.2098
X3.4024Y-3.5098
X3.4024Y-4.2098
X3.5024Y-3.5098
X3.5024Y-4.2098
X3.6024Y-3.5098
X3.6024Y-4.2098
X3.7024Y-3.5098
X3.7024Y-4.2098
X3.8024Y-3.5098
X3.8024Y-4.2098
X3.9024Y-3.5098
X3.9024Y-4.2098
X4.0024Y-3.5098
X4.0024Y-4.2098
X4.1024Y-3.5098
X4.1024Y-4.2098
X4.2024Y-3.5098
X4.2024Y-4.2098
X4.3024Y-3.5098
X4.3024Y-4.2098
X4.4024Y-3.5098
X4.4024Y-4.2098
X4.5024Y-3.5098
X4.5024Y-4.2098
X4.6024Y-3.5098
X4.6024Y-4.2098
X4.7024Y-3.5098
X4.7024Y-4.2098
X4.7933Y-3.7598
X4.7933Y-3.8598
X4.7933Y-3.9598
X4.8024Y-3.5098
X4.8024Y-4.2098
T4
X3.337Y-2.2441
X3.537Y-2.2441
X3.737Y-2.2441
X3.937Y-2.2441
T5
X3.0Y-2.25
X3.0Y-5.25
X6.75Y-2.25
X6.75Y-5.25
T0
M30
