%TF.GenerationSoftware,KiCad,Pcbnew,7.0.8*%
%TF.CreationDate,2024-01-07T20:15:44-08:00*%
%TF.ProjectId,PicoIrrigation,5069636f-4972-4726-9967-6174696f6e2e,rev?*%
%TF.SameCoordinates,Original*%
%TF.FileFunction,Soldermask,Bot*%
%TF.FilePolarity,Negative*%
%FSLAX46Y46*%
G04 Gerber Fmt 4.6, Leading zero omitted, Abs format (unit mm)*
G04 Created by KiCad (PCBNEW 7.0.8) date 2024-01-07 20:15:44*
%MOMM*%
%LPD*%
G01*
G04 APERTURE LIST*
%ADD10R,1.700000X1.700000*%
%ADD11O,1.700000X1.700000*%
%ADD12C,5.600000*%
%ADD13O,1.800000X1.800000*%
%ADD14O,1.500000X1.500000*%
%ADD15R,3.000000X3.000000*%
%ADD16C,3.000000*%
G04 APERTURE END LIST*
D10*
%TO.C,J6*%
X135860000Y-57300000D03*
D11*
X138400000Y-57300000D03*
X140940000Y-57300000D03*
%TD*%
D10*
%TO.C,J5*%
X120650000Y-57150000D03*
D11*
X123190000Y-57150000D03*
X125730000Y-57150000D03*
%TD*%
D12*
%TO.C,J1*%
X76200000Y-57150000D03*
%TD*%
D10*
%TO.C,J15*%
X104140000Y-134000000D03*
D11*
X101600000Y-134000000D03*
X99060000Y-134000000D03*
X96520000Y-134000000D03*
X93980000Y-134000000D03*
X91440000Y-134000000D03*
X88900000Y-134000000D03*
X86360000Y-134000000D03*
%TD*%
D10*
%TO.C,J7*%
X153475000Y-57600000D03*
D11*
X156015000Y-57600000D03*
X158555000Y-57600000D03*
%TD*%
D10*
%TO.C,J22*%
X172000000Y-88900000D03*
D11*
X172000000Y-91440000D03*
X172000000Y-93980000D03*
X172000000Y-96520000D03*
X172000000Y-99060000D03*
%TD*%
D12*
%TO.C,J3*%
X171450000Y-133350000D03*
%TD*%
D13*
%TO.C,U6*%
X73850000Y-100765000D03*
D14*
X76880000Y-100465000D03*
X76880000Y-95615000D03*
D13*
X73850000Y-95315000D03*
D11*
X73720000Y-106930000D03*
X76260000Y-106930000D03*
D10*
X78800000Y-106930000D03*
D11*
X81340000Y-106930000D03*
X83880000Y-106930000D03*
X86420000Y-106930000D03*
X88960000Y-106930000D03*
D10*
X91500000Y-106930000D03*
D11*
X94040000Y-106930000D03*
X96580000Y-106930000D03*
X99120000Y-106930000D03*
X101660000Y-106930000D03*
D10*
X104200000Y-106930000D03*
D11*
X106740000Y-106930000D03*
X109280000Y-106930000D03*
X111820000Y-106930000D03*
X114360000Y-106930000D03*
D10*
X116900000Y-106930000D03*
D11*
X119440000Y-106930000D03*
X121980000Y-106930000D03*
X121980000Y-89150000D03*
X119440000Y-89150000D03*
D10*
X116900000Y-89150000D03*
D11*
X114360000Y-89150000D03*
X111820000Y-89150000D03*
X109280000Y-89150000D03*
X106740000Y-89150000D03*
D10*
X104200000Y-89150000D03*
D11*
X101660000Y-89150000D03*
X99120000Y-89150000D03*
X96580000Y-89150000D03*
X94040000Y-89150000D03*
D10*
X91500000Y-89150000D03*
D11*
X88960000Y-89150000D03*
X86420000Y-89150000D03*
X83880000Y-89150000D03*
X81340000Y-89150000D03*
D10*
X78800000Y-89150000D03*
D11*
X76260000Y-89150000D03*
X73720000Y-89150000D03*
X121750000Y-100580000D03*
D10*
X121750000Y-98040000D03*
D11*
X121750000Y-95500000D03*
%TD*%
D12*
%TO.C,J4*%
X76200000Y-133350000D03*
%TD*%
D10*
%TO.C,J16*%
X138000000Y-134000000D03*
D11*
X135460000Y-134000000D03*
X132920000Y-134000000D03*
X130380000Y-134000000D03*
X127840000Y-134000000D03*
X125300000Y-134000000D03*
X122760000Y-134000000D03*
X120220000Y-134000000D03*
%TD*%
D10*
%TO.C,J13*%
X172000000Y-112920000D03*
D11*
X172000000Y-115460000D03*
X172000000Y-118000000D03*
X172000000Y-120540000D03*
%TD*%
D10*
%TO.C,J21*%
X172000000Y-66920000D03*
D11*
X172000000Y-69460000D03*
X172000000Y-72000000D03*
X172000000Y-74540000D03*
X172000000Y-77080000D03*
%TD*%
D12*
%TO.C,J2*%
X171450000Y-57150000D03*
%TD*%
D15*
%TO.C,J17*%
X100000000Y-57000000D03*
D16*
X94920000Y-57000000D03*
X89840000Y-57000000D03*
X84760000Y-57000000D03*
%TD*%
D10*
%TO.C,J8*%
X104000000Y-83540000D03*
D11*
X104000000Y-81000000D03*
%TD*%
D10*
%TO.C,J14*%
X158000000Y-134000000D03*
D11*
X155460000Y-134000000D03*
X152920000Y-134000000D03*
X150380000Y-134000000D03*
%TD*%
M02*
