M48
; DRILL file {KiCad 7.0.5} date Sat Sep 16 15:17:16 2023
; FORMAT={-:-/ absolute / inch / decimal}
; #@! TF.CreationDate,2023-09-16T15:17:16-07:00
; #@! TF.GenerationSoftware,Kicad,Pcbnew,7.0.5
; #@! TF.FileFunction,Plated,1,2,PTH
FMAT,2
INCH
; #@! TA.AperFunction,Plated,PTH,ViaDrill
T1C0.0118
; #@! TA.AperFunction,Plated,PTH,ViaDrill
T2C0.0157
; #@! TA.AperFunction,Plated,PTH,ComponentDrill
T3C0.0315
; #@! TA.AperFunction,Plated,PTH,ComponentDrill
T4C0.0394
; #@! TA.AperFunction,Plated,PTH,ComponentDrill
T5C0.0433
; #@! TA.AperFunction,Plated,PTH,ComponentDrill
T6C0.0598
; #@! TA.AperFunction,Plated,PTH,ComponentDrill
T7C0.1260
%
G90
G05
T1
X2.8878Y-4.8642
X2.9016Y-2.6614
X2.9449Y-4.7362
X2.9803Y-4.874
X3.1398Y-2.5689
X3.1398Y-2.7461
X3.1693Y-4.626
X3.3346Y-4.8189
X3.3465Y-3.6811
X3.3504Y-4.8937
X3.3524Y-2.6575
X3.4843Y-3.3661
X3.4843Y-4.6457
X3.5472Y-4.8937
X3.5512Y-4.8228
X3.5827Y-2.5984
X3.5827Y-2.9134
X3.6417Y-4.7047
X3.6614Y-3.0709
X3.7402Y-2.6772
X3.7598Y-4.4685
X3.7598Y-4.8209
X3.7618Y-4.8937
X3.8091Y-2.8248
X3.8189Y-3.9567
X3.8386Y-3.6417
X3.8484Y-4.7343
X3.8701Y-4.5413
X3.9055Y-3.7776
X3.9685Y-4.8209
X3.9744Y-4.8937
X3.9921Y-3.8091
X3.9961Y-3.9094
X4.0123Y-2.9921
X4.0157Y-4.7244
X4.0551Y-4.6063
X4.0669Y-3.2047
X4.0748Y-3.3268
X4.0945Y-2.8346
X4.0945Y-3.9567
X4.1732Y-3.7008
X4.1732Y-4.4291
X4.1831Y-4.8209
X4.187Y-4.8937
X4.2559Y-4.7323
X4.2717Y-3.878
X4.2913Y-3.9961
X4.2953Y-4.7874
X4.3307Y-3.563
X4.3307Y-3.6614
X4.3307Y-4.3504
X4.3406Y-2.3031
X4.3406Y-4.9449
X4.3504Y-4.6949
X4.3701Y-3.7795
X4.3937Y-4.6024
X4.4291Y-4.3307
X4.435Y-4.1909
X4.4488Y-4.685
X4.4783Y-4.5276
X4.4843Y-3.3898
X4.498Y-3.7677
X4.498Y-4.5866
X4.5177Y-4.4882
X4.5177Y-4.7795
X4.5591Y-4.7185
X4.5866Y-3.563
X4.5866Y-3.9961
X4.6063Y-3.2087
X4.626Y-4.5177
X4.628Y-4.8937
X4.6457Y-2.9921
X4.7047Y-3.937
X4.7146Y-3.8424
X4.7146Y-4.5768
X4.8209Y-4.813
X4.8228Y-2.9331
X4.8228Y-4.3701
X4.8346Y-4.8937
X4.9606Y-4.4488
X4.9803Y-2.6378
X4.9803Y-3.7106
X4.9803Y-3.8878
X5.0197Y-2.9331
X5.0197Y-4.7047
X5.0335Y-4.8169
X5.0394Y-3.8681
X5.0394Y-4.8937
X5.0965Y-4.2461
X5.128Y-3.7106
X5.1969Y-4.4882
X5.2421Y-4.8937
X5.2461Y-4.8209
X5.2854Y-2.628
X5.2933Y-2.8465
X5.3095Y-2.7362
X5.3346Y-4.4291
X5.4409Y-4.8937
X5.4429Y-4.815
X5.4685Y-2.4007
X5.4724Y-2.9823
X5.4921Y-3.3465
X5.5709Y-3.189
X5.5709Y-4.3898
X5.5768Y-2.3924
X5.628Y-4.7795
X5.6457Y-2.7559
X5.6516Y-4.9134
X5.6929Y-2.3976
X5.7087Y-2.8386
X5.7087Y-4.2126
X5.7106Y-4.8406
X5.815Y-2.7126
X5.8484Y-4.9528
X5.8661Y-3.5433
X5.8858Y-2.9606
X5.8957Y-4.8327
X5.9055Y-2.8386
X5.9055Y-3.061
X5.9055Y-3.8976
X5.9862Y-2.7165
X6.002Y-4.689
X6.0433Y-2.9823
X6.0827Y-3.4252
X6.0846Y-2.9035
X6.0906Y-3.9882
X6.0906Y-4.2224
X6.1043Y-5.1575
X6.1102Y-3.0217
X6.122Y-4.8366
X6.1319Y-2.9724
X6.1476Y-2.8386
X6.2008Y-2.9705
X6.2096Y-2.6467
X6.2303Y-5.1555
X6.2362Y-4.689
X6.2434Y-2.389
X6.2579Y-2.9035
X6.2598Y-4.4882
X6.2992Y-4.8228
X6.3287Y-2.8386
X6.3386Y-3.8878
X6.3423Y-5.175
X6.3484Y-2.384
X6.3543Y-3.0059
X6.3543Y-4.6378
X6.374Y-2.7146
X6.3976Y-3.7402
X6.4075Y-3.061
X6.4213Y-2.9488
X6.4567Y-2.8386
X6.4606Y-2.3976
X6.5059Y-4.689
X6.5354Y-3.6417
X6.5453Y-4.0157
X6.5551Y-2.9626
X6.5571Y-2.7047
X6.5748Y-4.5276
X6.5827Y-3.4134
X6.5945Y-3.9469
X6.5945Y-4.1535
X6.6102Y-4.9252
X6.6142Y-3.8976
X6.6142Y-4.689
X6.6299Y-3.3602
X6.6398Y-3.811
X6.6516Y-4.8445
X6.6535Y-2.8386
X6.6693Y-3.4803
X6.7126Y-3.248
X6.7264Y-3.7421
X6.7323Y-3.6417
X6.7461Y-4.689
X6.75Y-2.7185
X6.7717Y-4.5669
X6.8079Y-5.1552
X6.8189Y-3.628
X6.8307Y-3.0413
X6.8406Y-3.4528
X6.8504Y-4.2717
X6.876Y-4.8406
X6.877Y-3.5148
X6.8898Y-3.2382
X6.8996Y-2.9035
X6.9035Y-2.8386
X6.9079Y-5.1694
X6.9094Y-3.8386
X6.9154Y-3.5787
X6.9173Y-2.5866
X6.9177Y-3.5259
X6.9685Y-4.311
X6.9744Y-2.9587
X6.9744Y-4.6909
X6.9882Y-4.5472
X7.0276Y-3.248
X7.0374Y-3.5309
X7.045Y-2.3875
X7.0472Y-2.8386
X7.0512Y-2.9035
X7.0669Y-3.0315
X7.0672Y-5.142
X7.0709Y-4.8524
X7.0866Y-3.189
X7.1063Y-3.5236
X7.126Y-4.5807
X7.1555Y-3.2382
X7.158Y-2.3745
X7.1614Y-2.7165
X7.1654Y-4.4882
X7.2047Y-2.9567
X7.2146Y-3.3071
X7.2441Y-2.8386
X7.2441Y-4.6909
X7.2717Y-2.3839
X7.2835Y-4.4685
X7.3012Y-3.6161
X7.3031Y-3.7913
X7.3031Y-4.626
X7.3228Y-3.0315
X7.3327Y-4.2323
X7.3425Y-4.8425
X7.3504Y-2.7067
X7.3622Y-4.1732
X7.3819Y-3.9173
X7.4154Y-4.6909
X7.4154Y-4.935
X7.4213Y-3.3858
X7.4213Y-4.5866
X7.4311Y-3.7421
X7.4409Y-2.8386
X7.4409Y-3.5433
X7.4409Y-4.2126
X7.4409Y-4.7441
X7.5079Y-4.8524
X7.5197Y-4.4193
X7.5256Y-3.1496
X7.5276Y-2.7146
X7.5531Y-3.0965
X7.5591Y-3.9961
X7.563Y-3.7224
X7.5965Y-4.689
X7.5984Y-4.5669
X7.6024Y-3.0433
X7.6181Y-3.7795
X7.6181Y-4.4193
X7.6417Y-2.9016
X7.6504Y-5.1528
X7.6585Y-3.0817
X7.6654Y-2.8386
X7.6969Y-3.5925
X7.6969Y-4.4488
X7.7028Y-3.502
X7.7067Y-2.9626
X7.7165Y-4.1929
X7.7283Y-4.8563
X7.7559Y-3.1693
X7.7677Y-2.9055
X7.782Y-5.154
X7.7835Y-2.8386
X7.7854Y-4.0059
X7.7874Y-2.3624
X7.815Y-3.5236
X7.8307Y-2.9488
X7.8366Y-4.6909
X7.8484Y-2.7303
X7.8543Y-4.2323
X7.8602Y-4.1417
X7.8957Y-3.7559
X7.9035Y-2.372
X7.9045Y-5.1585
X7.937Y-4.8248
X7.9528Y-2.8386
X7.9606Y-4.3996
X7.9606Y-4.6358
X7.9724Y-3.5827
X8.0079Y-4.1102
X8.0118Y-4.3898
X8.0157Y-2.376
X8.0492Y-2.7205
X8.0655Y-4.3898
X8.1076Y-4.0039
X8.1102Y-4.689
X8.122Y-3.8327
X8.1496Y-2.8386
X8.1496Y-4.0846
X8.2087Y-3.5236
X8.2362Y-2.7264
X8.2362Y-3.8425
X8.2362Y-4.9429
X8.2382Y-4.3799
X8.248Y-4.5669
X8.2638Y-4.689
X8.2972Y-3.9035
X8.3051Y-4.8465
X8.3366Y-3.9173
X8.3386Y-4.1732
X8.3661Y-4.1142
X8.374Y-2.8366
X8.378Y-2.9035
X8.3858Y-2.7362
X8.3858Y-4.3071
X8.4016Y-4.689
X8.4146Y-5.176
X8.4587Y-3.9587
X8.5177Y-4.8386
X8.5236Y-3.4055
X8.5236Y-4.6063
X8.5512Y-5.1673
X8.5846Y-4.0591
X8.5945Y-2.6988
X8.6358Y-4.687
X8.6417Y-3.9567
X8.6417Y-4.4685
X8.6496Y-2.8346
X8.688Y-5.1722
X8.7106Y-4.8563
X8.7205Y-3.1102
X8.7205Y-3.8189
X8.8346Y-4.1732
X8.8386Y-2.9331
X8.878Y-3.4449
X8.9173Y-4.0551
X8.9449Y-3.7146
X9.1033Y-3.9429
T2
X5.4429Y-2.7953
X5.4626Y-2.6575
X6.1603Y-2.6586
X6.2402Y-2.5886
X6.3976Y-4.9213
X6.5157Y-4.8425
X6.9587Y-2.7165
X6.9794Y-2.5973
X7.185Y-5.0098
X7.2244Y-4.8819
X7.6969Y-2.7559
X7.7756Y-2.6083
X7.9823Y-4.9705
X8.1102Y-4.8031
X8.8681Y-4.9311
X8.9173Y-4.7638
T3
X3.1146Y-3.7377
X3.1146Y-3.8377
X3.5965Y-3.5837
X3.5965Y-3.6625
X3.5965Y-3.7412
X3.6752Y-3.5837
X3.6752Y-3.6625
X3.6752Y-3.7412
T4
X3.3764Y-5.2756
X3.4764Y-5.2756
X3.5764Y-5.2756
X3.622Y-3.3071
X3.6764Y-5.2756
X3.722Y-3.3071
X3.7764Y-5.2756
X3.822Y-3.3071
X3.8764Y-5.2756
X3.9764Y-5.2756
X4.0764Y-5.2756
X4.5756Y-5.2756
X4.6228Y-4.2717
X4.6756Y-5.2756
X4.7228Y-4.2717
X4.7756Y-5.2756
X4.8228Y-4.2717
X4.8756Y-5.2756
X4.9756Y-5.2756
X5.0756Y-5.2756
X5.1543Y-3.2874
X5.1756Y-5.2756
X5.2543Y-3.2874
X5.2756Y-5.2756
X5.3543Y-3.2874
X5.5729Y-2.2963
X5.6729Y-2.2963
X5.7729Y-2.2963
X5.8417Y-5.2756
X5.8729Y-2.2963
X5.9417Y-5.2756
X5.9729Y-2.2963
X6.0417Y-5.2756
X6.1417Y-5.2756
X6.2417Y-5.2756
X6.3433Y-2.2891
X6.4433Y-2.2891
X6.5433Y-2.2891
X6.6079Y-5.2756
X6.6433Y-2.2891
X6.7079Y-5.2756
X6.7433Y-2.2891
X6.8079Y-5.2756
X6.9079Y-5.2756
X7.0079Y-5.2756
X7.1595Y-2.2729
X7.2595Y-2.2729
X7.3595Y-2.2729
X7.4504Y-5.2854
X7.4595Y-2.2729
X7.5504Y-5.2854
X7.5595Y-2.2729
X7.6504Y-5.2854
X7.7504Y-5.2854
X7.8504Y-5.2854
X7.8828Y-2.267
X7.9828Y-2.267
X8.0828Y-2.267
X8.1828Y-2.267
X8.2146Y-5.2815
X8.2828Y-2.267
X8.3146Y-5.2815
X8.4146Y-5.2815
X8.5146Y-5.2815
X8.6146Y-5.2815
X9.0157Y-2.9677
X9.0157Y-3.0677
X9.0157Y-3.1677
X9.0157Y-3.2677
X9.0157Y-4.252
X9.0157Y-4.352
X9.0157Y-4.452
X9.0157Y-4.552
T5
X3.0858Y-3.4877
X3.0858Y-4.0877
X3.1858Y-3.4877
X3.1858Y-3.5877
X3.1858Y-4.0877
X3.2858Y-3.4877
X3.2858Y-4.0877
X3.3338Y-3.9676
X3.3858Y-3.4877
X3.3858Y-4.0877
X3.4338Y-3.9676
X3.4858Y-3.4877
X3.4858Y-4.0877
X3.5338Y-3.9676
X3.5858Y-3.4877
X3.5858Y-4.0877
X3.6338Y-3.9676
X3.6858Y-3.4877
X3.6858Y-4.0877
X3.7338Y-3.9676
X3.7858Y-3.4877
X3.7858Y-4.0877
X3.8858Y-3.4877
X3.8858Y-4.0877
X3.9858Y-3.4877
X3.9858Y-4.0877
X4.0858Y-3.4877
X4.0858Y-4.0877
X4.1858Y-3.4877
X4.1858Y-4.0877
X4.2858Y-3.4877
X4.2858Y-4.0877
X4.3858Y-3.4877
X4.3858Y-4.0877
X4.4858Y-3.4877
X4.4858Y-4.0877
X4.5858Y-3.4877
X4.5858Y-4.0877
X4.6858Y-3.4877
X4.6858Y-4.0877
X4.7858Y-3.4877
X4.7858Y-4.0877
X4.8858Y-3.4877
X4.8858Y-3.5877
X4.8858Y-3.6877
X4.8858Y-3.7877
X4.8858Y-3.8877
X4.8858Y-3.9877
X4.8858Y-4.0877
X4.9858Y-3.4877
X4.9858Y-4.0877
X5.0858Y-3.4877
X5.0858Y-4.0877
X5.1858Y-3.4877
X5.1858Y-4.0877
X5.2858Y-3.4877
X5.2858Y-4.0877
X5.3858Y-3.4877
X5.3858Y-4.0877
T6
X3.337Y-2.2441
X3.537Y-2.2441
X3.737Y-2.2441
X3.937Y-2.2441
T7
X3.0Y-2.25
X3.0Y-5.25
X9.0Y-2.25
X9.0Y-5.25
T0
M30
