%TF.GenerationSoftware,KiCad,Pcbnew,7.0.5*%
%TF.CreationDate,2023-09-16T15:17:10-07:00*%
%TF.ProjectId,TeensyIrrigation,5465656e-7379-4497-9272-69676174696f,rev?*%
%TF.SameCoordinates,Original*%
%TF.FileFunction,Soldermask,Bot*%
%TF.FilePolarity,Negative*%
%FSLAX46Y46*%
G04 Gerber Fmt 4.6, Leading zero omitted, Abs format (unit mm)*
G04 Created by KiCad (PCBNEW 7.0.5) date 2023-09-16 15:17:10*
%MOMM*%
%LPD*%
G01*
G04 APERTURE LIST*
%ADD10R,1.700000X1.700000*%
%ADD11O,1.700000X1.700000*%
%ADD12C,5.600000*%
%ADD13R,1.600000X1.600000*%
%ADD14C,1.600000*%
%ADD15R,1.300000X1.300000*%
%ADD16C,1.300000*%
%ADD17R,3.000000X3.000000*%
%ADD18C,3.000000*%
G04 APERTURE END LIST*
D10*
%TO.C,J6*%
X167840000Y-134000000D03*
D11*
X170380000Y-134000000D03*
X172920000Y-134000000D03*
X175460000Y-134000000D03*
X178000000Y-134000000D03*
%TD*%
D10*
%TO.C,J20*%
X122500000Y-108500000D03*
D11*
X119960000Y-108500000D03*
X117420000Y-108500000D03*
%TD*%
D12*
%TO.C,J1*%
X76200000Y-57150000D03*
%TD*%
D10*
%TO.C,J15*%
X85760000Y-134000000D03*
D11*
X88300000Y-134000000D03*
X90840000Y-134000000D03*
X93380000Y-134000000D03*
X95920000Y-134000000D03*
X98460000Y-134000000D03*
X101000000Y-134000000D03*
X103540000Y-134000000D03*
%TD*%
D10*
%TO.C,J7*%
X189240000Y-134250000D03*
D11*
X191780000Y-134250000D03*
X194320000Y-134250000D03*
X196860000Y-134250000D03*
X199400000Y-134250000D03*
%TD*%
D10*
%TO.C,J11*%
X171278900Y-58144100D03*
D11*
X168738900Y-58144100D03*
X166198900Y-58144100D03*
X163658900Y-58144100D03*
X161118900Y-58144100D03*
%TD*%
D12*
%TO.C,J3*%
X228600000Y-133350000D03*
%TD*%
D10*
%TO.C,J12*%
X151712500Y-58325000D03*
D11*
X149172500Y-58325000D03*
X146632500Y-58325000D03*
X144092500Y-58325000D03*
X141552500Y-58325000D03*
%TD*%
D13*
%TO.C,U1*%
X78380000Y-103828200D03*
D14*
X80920000Y-103828200D03*
X83460000Y-103828200D03*
X86000000Y-103828200D03*
X88540000Y-103828200D03*
X91080000Y-103828200D03*
X93620000Y-103828200D03*
X96160000Y-103828200D03*
X98700000Y-103828200D03*
X101240000Y-103828200D03*
X103780000Y-103828200D03*
X106320000Y-103828200D03*
X108860000Y-103828200D03*
X111400000Y-103828200D03*
X113940000Y-103828200D03*
X116480000Y-103828200D03*
X119020000Y-103828200D03*
X121560000Y-103828200D03*
X124100000Y-103828200D03*
X126640000Y-103828200D03*
X129180000Y-103828200D03*
X131720000Y-103828200D03*
X134260000Y-103828200D03*
X136800000Y-103828200D03*
X136800000Y-88588200D03*
X134260000Y-88588200D03*
X131720000Y-88588200D03*
X129180000Y-88588200D03*
X126640000Y-88588200D03*
X124100000Y-88588200D03*
X121560000Y-88588200D03*
X119020000Y-88588200D03*
X116480000Y-88588200D03*
X113940000Y-88588200D03*
X111400000Y-88588200D03*
X108860000Y-88588200D03*
X106320000Y-88588200D03*
X103780000Y-88588200D03*
X101240000Y-88588200D03*
X98700000Y-88588200D03*
X96160000Y-88588200D03*
X93620000Y-88588200D03*
X91080000Y-88588200D03*
X88540000Y-88588200D03*
X86000000Y-88588200D03*
X83460000Y-88588200D03*
X80920000Y-88588200D03*
X78380000Y-88588200D03*
X80920000Y-91128200D03*
X124100000Y-101288200D03*
X124100000Y-98748200D03*
X124100000Y-96208200D03*
X124100000Y-93668200D03*
X124100000Y-91128200D03*
D13*
X84679200Y-100777400D03*
D14*
X87219200Y-100777400D03*
X89759200Y-100777400D03*
X92299200Y-100777400D03*
X94839200Y-100777400D03*
D15*
X91350000Y-91026600D03*
D16*
X91350000Y-93026600D03*
X91350000Y-95026600D03*
X93350000Y-95026600D03*
X93350000Y-93026600D03*
X93350000Y-91026600D03*
X79110000Y-94938200D03*
X79110000Y-97478200D03*
%TD*%
D10*
%TO.C,J19*%
X97080000Y-84000000D03*
D11*
X94540000Y-84000000D03*
X92000000Y-84000000D03*
%TD*%
D12*
%TO.C,J4*%
X76200000Y-133350000D03*
%TD*%
D10*
%TO.C,J10*%
X192012500Y-57732500D03*
D11*
X189472500Y-57732500D03*
X186932500Y-57732500D03*
X184392500Y-57732500D03*
X181852500Y-57732500D03*
%TD*%
D10*
%TO.C,J16*%
X116220000Y-134000000D03*
D11*
X118760000Y-134000000D03*
X121300000Y-134000000D03*
X123840000Y-134000000D03*
X126380000Y-134000000D03*
X128920000Y-134000000D03*
X131460000Y-134000000D03*
X134000000Y-134000000D03*
%TD*%
D10*
%TO.C,J9*%
X210382500Y-57582500D03*
D11*
X207842500Y-57582500D03*
X205302500Y-57582500D03*
X202762500Y-57582500D03*
X200222500Y-57582500D03*
%TD*%
D10*
%TO.C,J13*%
X229000000Y-83000000D03*
D11*
X229000000Y-80460000D03*
X229000000Y-77920000D03*
X229000000Y-75380000D03*
%TD*%
D10*
%TO.C,J8*%
X208650000Y-134150000D03*
D11*
X211190000Y-134150000D03*
X213730000Y-134150000D03*
X216270000Y-134150000D03*
X218810000Y-134150000D03*
%TD*%
D12*
%TO.C,J2*%
X228600000Y-57150000D03*
%TD*%
D17*
%TO.C,J17*%
X100000000Y-57000000D03*
D18*
X94920000Y-57000000D03*
X89840000Y-57000000D03*
X84760000Y-57000000D03*
%TD*%
D10*
%TO.C,J5*%
X148380000Y-134000000D03*
D11*
X150920000Y-134000000D03*
X153460000Y-134000000D03*
X156000000Y-134000000D03*
X158540000Y-134000000D03*
%TD*%
D10*
%TO.C,J18*%
X136000000Y-83500000D03*
D11*
X133460000Y-83500000D03*
X130920000Y-83500000D03*
%TD*%
D10*
%TO.C,J14*%
X229000000Y-115620000D03*
D11*
X229000000Y-113080000D03*
X229000000Y-110540000D03*
X229000000Y-108000000D03*
%TD*%
M02*
